<svg id="Layer_2" xmlns="http://www.w3.org/2000/svg" viewBox="0 0 41.11 41.11"><defs></defs><g id="Layer_1-2"><circle className="cls-2" cx="20.55" cy="20.55" r="20.55"/><path className="cls-1" d="M26.03,21.64v5.82c0,.27-.1,.76,0,1.01s.37-.86,.39-.78c-.02-.07,.29,.08-.03,.01-.22-.04-.11,.05-.07,.04-.09,.01-.18,0-.27,0-.57,.03-1.16,0-1.73,0h-7.21c-.8,0-1.6,0-2.39,0-.21,0-.62-.02-.59-.07,.07-.15,.35,1,.43,.8,.04-.1,0-.28,0-.39v-6.46c0-2.41-3.75-2.42-3.75,0v6.33c0,.4-.02,.82,.08,1.22,.36,1.31,1.62,2.06,2.89,2.25,.73,.11,1.47,.07,2.21,.07h7.8c2.36,0,5.87,.18,5.99-3.08,.09-2.26,0-4.53,0-6.79,0-2.41-3.75-2.42-3.75,0h0Z"/><path className="cls-1" d="M10.63,17.17c2.26-1.43,4.53-2.85,6.8-4.27,.69-.43,1.37-.86,2.06-1.29,.39-.25,.97-.77,1.43-.78s.95,.5,1.32,.75c.66,.45,1.33,.89,2,1.32,2.18,1.42,4.38,2.82,6.57,4.22,2.04,1.31,3.92-1.94,1.89-3.24-2.34-1.5-4.68-2.99-7-4.51-1.5-.98-2.98-2.33-4.88-2.29-1.79,.04-3.37,1.38-4.83,2.29-2.42,1.52-4.84,3.03-7.26,4.56-2.04,1.28-.16,4.53,1.89,3.24h0Z"/></g></svg>